# Blender v2.76 (sub 0) OBJ File: 'sky.blend'
# www.blender.org
mtllib sky.mtl
o Cylinder
v -0.000006 -77.027336 152.561752
v -0.000006 -77.027336 -1.492920
v -15.027293 -75.547272 152.561752
v -15.027293 -75.547272 -1.492920
v -29.477093 -71.163979 152.561752
v -29.477093 -71.163979 -1.492920
v -42.794098 -64.045891 152.561752
v -42.794098 -64.045891 -1.492920
v -54.466553 -54.466545 152.561752
v -54.466553 -54.466545 -1.492920
v -64.045891 -42.794086 152.561752
v -64.045891 -42.794086 -1.492920
v -71.163979 -29.477079 152.561752
v -71.163979 -29.477079 -1.492920
v -75.547272 -15.027285 152.561752
v -75.547272 -15.027285 -1.492920
v -77.027336 0.000000 152.561752
v -77.027336 0.000000 -1.492920
v -75.547279 15.027285 152.561752
v -75.547279 15.027285 -1.492920
v -71.163979 29.477079 152.561752
v -71.163979 29.477079 -1.492920
v -64.045891 42.794094 152.561752
v -64.045891 42.794094 -1.492920
v -54.466545 54.466553 152.561752
v -54.466545 54.466553 -1.492920
v -42.794086 64.045891 152.561752
v -42.794086 64.045891 -1.492920
v -29.477068 71.163986 152.561752
v -29.477068 71.163986 -1.492920
v -15.027264 75.547279 152.561752
v -15.027264 75.547279 -1.492920
v 0.000031 77.027336 152.561752
v 0.000031 77.027336 -1.492920
v 15.027325 75.547272 152.561752
v 15.027325 75.547272 -1.492920
v 29.477125 71.163963 152.561752
v 29.477125 71.163963 -1.492920
v 42.794136 64.045868 152.561752
v 42.794136 64.045868 -1.492920
v 54.466591 54.466515 152.561752
v 54.466591 54.466515 -1.492920
v 64.045921 42.794044 152.561752
v 64.045921 42.794044 -1.492920
v 71.164001 29.477022 152.561752
v 71.164001 29.477022 -1.492920
v 75.547287 15.027216 152.561752
v 75.547287 15.027216 -1.492920
v 77.027336 -0.000080 152.561752
v 77.027336 -0.000080 -1.492920
v 75.547264 -15.027373 152.561752
v 75.547264 -15.027373 -1.492920
v 71.163948 -29.477171 152.561752
v 71.163948 -29.477171 -1.492920
v 64.045837 -42.794178 152.561752
v 64.045837 -42.794178 -1.492920
v 54.466476 -54.466625 152.561752
v 54.466476 -54.466625 -1.492920
v 42.794006 -64.045944 152.561752
v 42.794006 -64.045944 -1.492920
v 29.476976 -71.164024 152.561752
v 29.476976 -71.164024 -1.492920
v 15.027166 -75.547295 152.561752
v 15.027166 -75.547295 -1.492920
v -0.000006 -77.027336 152.561752
v -0.000006 -77.027336 -1.492912
v -15.027293 -75.547272 -1.492912
v -15.027293 -75.547272 152.561752
v -29.477093 -71.163979 -1.492912
v -29.477093 -71.163979 152.561752
v -42.794098 -64.045891 -1.492912
v -42.794098 -64.045891 152.561752
v -54.466553 -54.466545 -1.492912
v -54.466553 -54.466545 152.561752
v -64.045891 -42.794086 -1.492912
v -64.045891 -42.794086 152.561752
v -71.163979 -29.477079 -1.492912
v -71.163979 -29.477079 152.561752
v -75.547272 -15.027285 -1.492912
v -75.547272 -15.027285 152.561752
v -77.027336 0.000000 -1.492912
v -77.027336 0.000000 152.561752
v -75.547279 15.027285 -1.492912
v -75.547279 15.027285 152.561752
v -71.163979 29.477079 -1.492912
v -71.163979 29.477079 152.561752
v -64.045891 42.794094 -1.492912
v -64.045891 42.794094 152.561752
v -54.466545 54.466553 -1.492912
v -54.466545 54.466553 152.561752
v -42.794086 64.045891 -1.492912
v -42.794086 64.045891 152.561752
v -29.477068 71.163986 -1.492912
v -29.477068 71.163986 152.561752
v -15.027264 75.547279 -1.492912
v -15.027264 75.547279 152.561752
v 0.000031 77.027336 -1.492912
v 0.000031 77.027336 152.561752
v 15.027325 75.547272 -1.492912
v 15.027325 75.547272 152.561752
v 29.477125 71.163963 -1.492912
v 29.477125 71.163963 152.561752
v 42.794136 64.045868 -1.492912
v 42.794136 64.045868 152.561752
v 54.466591 54.466515 -1.492912
v 54.466591 54.466515 152.561752
v 64.045921 42.794044 -1.492912
v 64.045921 42.794044 152.561752
v 71.164001 29.477022 -1.492912
v 71.164001 29.477022 152.561752
v 75.547287 15.027216 -1.492912
v 75.547287 15.027216 152.561752
v 77.027336 -0.000080 -1.492912
v 77.027336 -0.000080 152.561752
v 75.547264 -15.027373 -1.492912
v 75.547264 -15.027373 152.561752
v 71.163948 -29.477171 -1.492912
v 71.163948 -29.477171 152.561752
v 64.045837 -42.794178 -1.492912
v 64.045837 -42.794178 152.561752
v 54.466476 -54.466625 -1.492912
v 54.466476 -54.466625 152.561752
v 42.794006 -64.045944 -1.492912
v 42.794006 -64.045944 152.561752
v 29.476976 -71.164024 -1.492912
v 29.476976 -71.164024 152.561752
v 15.027166 -75.547295 -1.492912
v 15.027166 -75.547295 152.561752
v 63.574085 8.830308 -1.492920
v 45.395462 14.442203 -1.492912
v 23.661182 14.289925 -1.492920
v 66.819283 -6.509569 -1.492920
v 55.910034 -18.398785 -1.492920
v 32.503288 -19.731133 -1.492928
v 19.571167 -15.052370 -1.492920
v 15.452514 -5.762737 -1.492920
v 14.656491 4.597538 -1.492912
v 61.977386 -5.861889 2.194870
v 59.268204 6.944288 2.194870
v 44.092163 11.629261 2.194870
v 25.947748 11.502134 2.194870
v 18.430370 3.410648 2.194870
v 52.870026 -15.787353 2.194870
v 33.329395 -16.899637 2.194862
v 22.533285 -12.993670 2.194870
v 19.094912 -5.238412 2.194870
v 53.722782 -4.757704 4.233932
v 51.927399 3.728941 4.233932
v 41.870247 6.833669 4.233932
v 29.845961 6.749423 4.233932
v 24.864202 1.387200 4.233932
v 47.687336 -11.335301 4.233932
v 34.737774 -12.072411 4.233925
v 27.583200 -9.483930 4.233932
v 25.304592 -4.344526 4.233932
vt 0.637779 0.314893
vt 0.637779 0.148226
vt 0.703301 0.151448
vt 0.703301 0.318115
vt 0.774562 0.154671
vt 0.774562 0.321337
vt 0.995333 0.304531
vt 0.995187 0.137865
vt 0.939998 0.138183
vt 0.940145 0.304849
vt 0.878676 0.138536
vt 0.878822 0.305203
vt 0.813576 0.138911
vt 0.813722 0.305578
vt 0.747201 0.139294
vt 0.747347 0.305960
vt 0.682101 0.139669
vt 0.682248 0.306335
vt 0.620779 0.140022
vt 0.620925 0.306688
vt 0.565590 0.140340
vt 0.565736 0.307006
vt 1.000000 0.314893
vt 1.000000 0.148226
vt 0.953065 0.148226
vt 0.953065 0.314893
vt 0.897877 0.148226
vt 0.897877 0.314893
vt 0.836554 0.148226
vt 0.836554 0.314893
vt 0.771454 0.148226
vt 0.771454 0.314893
vt 0.705079 0.148226
vt 0.705079 0.314893
vt 0.639979 0.148226
vt 0.639979 0.314893
vt 0.578656 0.148226
vt 0.578656 0.314893
vt 0.523467 0.148226
vt 0.523467 0.314893
vt 0.915237 0.313025
vt 0.914981 0.146360
vt 0.868047 0.146835
vt 0.868303 0.313500
vt 0.812858 0.147393
vt 0.813115 0.314059
vt 0.751536 0.148014
vt 0.751793 0.314679
vt 0.686436 0.148672
vt 0.686693 0.315338
vt 0.620062 0.149344
vt 0.620318 0.316009
vt 0.554962 0.150003
vt 0.555219 0.316668
vt 0.493640 0.150623
vt 0.493897 0.317289
vt 0.438451 0.151182
vt 0.438708 0.317847
vt 0.476532 0.148226
vt 0.476533 0.314893
vt 0.421343 0.148226
vt 0.421344 0.314893
vt 0.360021 0.148226
vt 0.360021 0.314893
vt 0.419404 0.151448
vt 0.419404 0.318115
vt 0.477512 0.157893
vt 0.477512 0.324560
vt 0.533123 0.314893
vt 0.533123 0.148226
vt 0.782035 0.486935
vt 0.767785 0.432279
vt 0.749647 0.385798
vt 0.728319 0.349278
vt 0.704621 0.324122
vt 0.679463 0.311298
vt 0.653812 0.311298
vt 0.628654 0.324122
vt 0.604956 0.349277
vt 0.583628 0.385797
vt 0.565490 0.432278
vt 0.551239 0.486934
vt 0.541423 0.547665
vt 0.536419 0.612136
vt 0.536419 0.677870
vt 0.541423 0.742342
vt 0.551239 0.803072
vt 0.565490 0.857729
vt 0.583628 0.904210
vt 0.604955 0.940730
vt 0.628654 0.965885
vt 0.653812 0.978710
vt 0.679462 0.978710
vt 0.704620 0.965886
vt 0.728319 0.940730
vt 0.749647 0.904210
vt 0.767785 0.857729
vt 0.782035 0.803073
vt 0.791852 0.742342
vt 0.796856 0.677871
vt 0.796856 0.612136
vt 0.791851 0.547665
vt 0.477512 0.657893
vt 0.477512 0.491226
vt 0.533123 0.481559
vt 0.533123 0.648226
vt 0.713850 0.992085
vt 0.713850 0.004003
vt 0.677685 0.004003
vt 0.677685 0.992085
vt 0.637779 0.481559
vt 0.637779 0.648226
vt 0.640075 0.004003
vt 0.640075 0.992085
vt 0.419404 0.651448
vt 0.419404 0.484782
vt 0.747180 0.992085
vt 0.747180 0.004003
vt 0.360021 0.648226
vt 0.360021 0.481559
vt 0.776394 0.992085
vt 0.776394 0.004003
vt 0.421344 0.648226
vt 0.421344 0.481559
vt 0.532970 0.992085
vt 0.532970 0.004003
vt 0.503756 0.004003
vt 0.503756 0.992085
vt 0.476533 0.648226
vt 0.476533 0.481559
vt 0.566299 0.992085
vt 0.566299 0.004003
vt 0.523467 0.648226
vt 0.523467 0.481559
vt 0.602464 0.992085
vt 0.602464 0.004003
vt 0.494410 0.650619
vt 0.494154 0.483954
vt 0.438965 0.484512
vt 0.439222 0.651178
vt 0.555733 0.649999
vt 0.555476 0.483333
vt 0.620832 0.649340
vt 0.620575 0.482675
vt 0.687207 0.648669
vt 0.686950 0.482003
vt 0.752306 0.648010
vt 0.752049 0.481344
vt 0.813628 0.647389
vt 0.813372 0.480724
vt 0.868817 0.646831
vt 0.868560 0.480166
vt 0.915751 0.646356
vt 0.915494 0.479691
vt 0.578656 0.648226
vt 0.578656 0.481559
vt 0.639979 0.648226
vt 0.639979 0.481559
vt 0.705079 0.648226
vt 0.705079 0.481559
vt 0.771454 0.648226
vt 0.771454 0.481559
vt 0.836554 0.648226
vt 0.836554 0.481559
vt 0.897877 0.648226
vt 0.897877 0.481559
vt 0.953066 0.648226
vt 0.953066 0.481559
vt 1.000000 0.648226
vt 1.000000 0.481559
vt 0.621218 0.640021
vt 0.621071 0.473354
vt 0.565882 0.473672
vt 0.566029 0.640339
vt 0.682540 0.639668
vt 0.682394 0.473001
vt 0.747640 0.639292
vt 0.747494 0.472626
vt 0.814015 0.638910
vt 0.813869 0.472244
vt 0.879115 0.638535
vt 0.878968 0.471869
vt 0.940437 0.638182
vt 0.940291 0.471516
vt 0.995626 0.637864
vt 0.995480 0.471198
vt 0.703301 0.651448
vt 0.703301 0.484782
vt 0.774562 0.488004
vt 0.774562 0.654671
vt 0.223799 0.468291
vt 0.205493 0.477622
vt 0.188249 0.495926
vt 0.172729 0.522500
vt 0.159531 0.556322
vt 0.149162 0.596093
vt 0.142019 0.640284
vt 0.138378 0.687196
vt 0.138378 0.735028
vt 0.162432 0.744524
vt 0.171070 0.698453
vt 0.198279 0.672892
vt 0.215255 0.675182
vt 0.223460 0.699555
vt 0.228119 0.730227
vt 0.205493 0.944602
vt 0.223799 0.953934
vt 0.242464 0.953934
vt 0.260770 0.944602
vt 0.278014 0.926298
vt 0.293533 0.899724
vt 0.306731 0.865902
vt 0.317101 0.826131
vt 0.324244 0.781940
vt 0.327885 0.735028
vt 0.327885 0.687196
vt 0.324244 0.640284
vt 0.317101 0.596093
vt 0.306731 0.556322
vt 0.293533 0.522500
vt 0.278014 0.495926
vt 0.260770 0.477622
vt 0.242464 0.468291
vt 0.220945 0.767887
vt 0.195291 0.788334
vt 0.171775 0.788039
vt 0.142019 0.781940
vt 0.149162 0.826131
vt 0.159531 0.865902
vt 0.172729 0.899724
vt 0.188249 0.926298
vt 0.220915 0.928763
vt 0.212838 0.720880
vt 0.248842 0.713274
vt 0.255585 0.886822
vt 0.267354 0.516437
vt 0.312315 0.449838
vt 0.322989 0.523947
vt 0.293193 0.568082
vt 0.203679 0.951326
vt 0.166113 0.891089
vt 0.199337 0.864786
vt 0.230698 0.915074
vt 0.185722 0.501124
vt 0.249186 0.407261
vt 0.268689 0.460872
vt 0.215707 0.539231
vt 0.235013 0.485098
vt 0.249186 0.978385
vt 0.268689 0.937663
vt 0.157516 0.746032
vt 0.192160 0.743688
vt 0.288870 0.405323
vt 0.288869 0.992543
vt 0.312315 0.940067
vt 0.285394 0.813536
vt 0.322989 0.848821
vt 0.227294 0.818202
vt 0.248077 0.851528
vt 0.273253 0.550529
vt 0.238142 0.602457
vt 0.280925 0.698526
vt 0.273253 0.866498
vt 0.222538 0.737951
vn 0.097300 0.995300 0.000000
vn 0.289800 0.957100 0.000000
vn 0.471800 0.881700 0.000000
vn 0.636200 0.771500 0.000000
vn 0.775100 0.631900 0.000000
vn 0.880900 0.473200 0.000000
vn 0.955800 0.294000 0.000000
vn 0.995200 0.098200 0.000000
vn 0.995200 -0.098200 0.000000
vn 0.955800 -0.294000 0.000000
vn 0.884600 -0.466400 0.000000
vn 0.775100 -0.631900 0.000000
vn 0.636200 -0.771500 0.000000
vn 0.471800 -0.881700 0.000000
vn 0.289800 -0.957100 0.000000
vn 0.097300 -0.995300 0.000000
vn -0.097300 -0.995300 0.000000
vn -0.289800 -0.957100 0.000000
vn -0.471800 -0.881700 0.000000
vn -0.636200 -0.771500 0.000000
vn -0.775100 -0.631900 0.000000
vn -0.884600 -0.466400 0.000000
vn -0.955800 -0.294000 0.000000
vn -0.995200 -0.098200 0.000000
vn -0.995200 0.098200 0.000000
vn -0.957200 0.289400 0.000000
vn -0.880900 0.473200 0.000000
vn -0.775100 0.631900 0.000000
vn -0.631200 0.775600 0.000000
vn -0.471800 0.881700 0.000000
vn -0.099300 0.995100 0.000000
vn -0.289800 0.957100 0.000000
vn -0.000000 0.000000 -1.000000
vn 0.000000 0.000000 1.000000
vn -0.290300 0.956900 0.000000
vn -0.098000 0.995200 0.000000
vn -0.471400 0.881900 0.000000
vn -0.634400 0.773000 0.000000
vn -0.773000 0.634400 0.000000
vn -0.881900 0.471400 0.000000
vn -0.956900 0.290300 0.000000
vn -0.995200 0.098000 0.000000
vn -0.995200 -0.098000 0.000000
vn -0.956900 -0.290300 0.000000
vn -0.881900 -0.471400 0.000000
vn -0.773000 -0.634400 0.000000
vn -0.634400 -0.773000 0.000000
vn -0.471400 -0.881900 0.000000
vn -0.290300 -0.956900 0.000000
vn -0.098000 -0.995200 0.000000
vn 0.098000 -0.995200 0.000000
vn 0.290300 -0.956900 0.000000
vn 0.471400 -0.881900 0.000000
vn 0.634400 -0.773000 0.000000
vn 0.773000 -0.634400 0.000000
vn 0.881900 -0.471400 0.000000
vn 0.956900 -0.290300 0.000000
vn 0.995200 -0.098000 0.000000
vn 0.995200 0.098000 0.000000
vn 0.956900 0.290300 0.000000
vn 0.881900 0.471400 0.000000
vn 0.773000 0.634400 0.000000
vn 0.634400 0.773000 0.000000
vn 0.471400 0.881900 0.000000
vn 0.290300 0.956900 0.000000
vn 0.098000 0.995200 0.000000
vn 0.226600 0.734100 0.640100
vn -0.232600 0.216100 0.948300
vn -0.659300 -0.292300 0.692700
vn 0.499100 -0.457900 0.735700
vn -0.005600 0.796000 0.605200
vn -0.706600 -0.054300 0.705600
vn 0.045400 -0.797200 0.602000
vn -0.526200 0.488900 0.695800
vn 0.611700 0.129400 0.780400
vn -0.265900 -0.734900 0.623800
vn 0.246000 0.052100 0.967900
vn -0.292400 -0.129700 0.947500
vn 0.210800 -0.193400 0.958200
vn 0.107000 0.346600 0.931900
vn -0.308800 -0.023700 0.950800
vn 0.022500 -0.394600 0.918600
vn -0.002700 0.392400 0.919800
vn -0.128100 -0.354000 0.926400
usemtl Material.002
s off
f 66/1/1 2/2/1 4/3/1 67/4/1
f 67/4/2 4/3/2 6/5/2 69/6/2
f 69/7/3 6/8/3 8/9/3 71/10/3
f 71/10/4 8/9/4 10/11/4 73/12/4
f 73/12/5 10/11/5 12/13/5 75/14/5
f 75/14/6 12/13/6 14/15/6 77/16/6
f 77/16/7 14/15/7 16/17/7 79/18/7
f 79/18/8 16/17/8 18/19/8 81/20/8
f 81/20/9 18/19/9 20/21/9 83/22/9
f 83/23/10 20/24/10 22/25/10 85/26/10
f 85/26/11 22/25/11 24/27/11 87/28/11
f 87/28/12 24/27/12 26/29/12 89/30/12
f 89/30/13 26/29/13 28/31/13 91/32/13
f 91/32/14 28/31/14 30/33/14 93/34/14
f 93/34/15 30/33/15 32/35/15 95/36/15
f 95/36/16 32/35/16 34/37/16 97/38/16
f 97/38/17 34/37/17 36/39/17 99/40/17
f 99/41/18 36/42/18 38/43/18 101/44/18
f 101/44/19 38/43/19 40/45/19 103/46/19
f 103/46/20 40/45/20 42/47/20 105/48/20
f 105/48/21 42/47/21 44/49/21 107/50/21
f 107/50/22 44/49/22 46/51/22 109/52/22
f 109/52/23 46/51/23 48/53/23 111/54/23
f 111/54/24 48/53/24 50/55/24 113/56/24
f 113/56/25 50/55/25 52/57/25 115/58/25
f 115/40/26 52/39/26 54/59/26 117/60/26
f 117/60/27 54/59/27 56/61/27 119/62/27
f 119/62/28 56/61/28 58/63/28 121/64/28
f 121/64/29 58/63/29 60/65/29 123/66/29
f 123/66/30 60/65/30 62/67/30 125/68/30
f 127/69/31 64/70/31 2/2/31 66/1/31
f 125/68/32 62/67/32 64/70/32 127/69/32
f 1/71/33 3/72/33 5/73/33 7/74/33 9/75/33 11/76/33 13/77/33 15/78/33 17/79/33 19/80/33 21/81/33 23/82/33 25/83/33 27/84/33 29/85/33 31/86/33 33/87/33 35/88/33 37/89/33 39/90/33 41/91/33 43/92/33 45/93/33 47/94/33 49/95/33 51/96/33 53/97/33 55/98/33 57/99/33 59/100/33 61/101/33 63/102/33
f 61/103/34 126/104/34 128/105/34 63/106/34
f 126/107/35 125/108/35 127/109/35 128/110/35
f 63/106/34 128/105/34 65/111/34 1/112/34
f 128/110/36 127/109/36 66/113/36 65/114/36
f 59/115/34 124/116/34 126/104/34 61/103/34
f 124/117/37 123/118/37 125/108/37 126/107/37
f 57/119/34 122/120/34 124/116/34 59/115/34
f 122/121/38 121/122/38 123/118/38 124/117/38
f 55/123/34 120/124/34 122/120/34 57/119/34
f 120/125/39 119/126/39 121/127/39 122/128/39
f 53/129/34 118/130/34 120/124/34 55/123/34
f 118/131/40 117/132/40 119/126/40 120/125/40
f 51/133/34 116/134/34 118/130/34 53/129/34
f 116/135/41 115/136/41 117/132/41 118/131/41
f 49/137/34 114/138/34 116/139/34 51/140/34
f 114/114/42 113/113/42 115/136/42 116/135/42
f 47/141/34 112/142/34 114/138/34 49/137/34
f 112/110/43 111/109/43 113/113/43 114/114/43
f 45/143/34 110/144/34 112/142/34 47/141/34
f 110/107/44 109/108/44 111/109/44 112/110/44
f 43/145/34 108/146/34 110/144/34 45/143/34
f 108/117/45 107/118/45 109/108/45 110/107/45
f 41/147/34 106/148/34 108/146/34 43/145/34
f 106/121/46 105/122/46 107/118/46 108/117/46
f 39/149/34 104/150/34 106/148/34 41/147/34
f 104/117/47 103/118/47 105/122/47 106/121/47
f 37/151/34 102/152/34 104/150/34 39/149/34
f 102/107/48 101/108/48 103/118/48 104/117/48
f 35/153/34 100/154/34 102/152/34 37/151/34
f 100/110/49 99/109/49 101/108/49 102/107/49
f 33/155/34 98/156/34 100/134/34 35/133/34
f 98/114/50 97/113/50 99/109/50 100/110/50
f 31/157/34 96/158/34 98/156/34 33/155/34
f 96/135/51 95/136/51 97/113/51 98/114/51
f 29/159/34 94/160/34 96/158/34 31/157/34
f 94/131/52 93/132/52 95/136/52 96/135/52
f 27/161/34 92/162/34 94/160/34 29/159/34
f 92/125/53 91/126/53 93/132/53 94/131/53
f 25/163/34 90/164/34 92/162/34 27/161/34
f 90/128/54 89/127/54 91/126/54 92/125/54
f 23/165/34 88/166/34 90/164/34 25/163/34
f 88/117/55 87/118/55 89/122/55 90/121/55
f 21/167/34 86/168/34 88/166/34 23/165/34
f 86/107/56 85/108/56 87/118/56 88/117/56
f 19/169/34 84/170/34 86/168/34 21/167/34
f 84/110/57 83/109/57 85/108/57 86/107/57
f 17/171/34 82/172/34 84/173/34 19/174/34
f 82/114/58 81/113/58 83/109/58 84/110/58
f 15/175/34 80/176/34 82/172/34 17/171/34
f 80/135/59 79/136/59 81/113/59 82/114/59
f 13/177/34 78/178/34 80/176/34 15/175/34
f 78/131/60 77/132/60 79/136/60 80/135/60
f 11/179/34 76/180/34 78/178/34 13/177/34
f 76/125/61 75/126/61 77/132/61 78/131/61
f 9/181/34 74/182/34 76/180/34 11/179/34
f 74/128/62 73/127/62 75/126/62 76/125/62
f 7/183/34 72/184/34 74/182/34 9/181/34
f 72/125/63 71/126/63 73/127/63 74/128/63
f 5/185/34 70/186/34 72/184/34 7/183/34
f 70/131/64 69/132/64 71/126/64 72/125/64
f 3/187/34 68/188/34 70/189/34 5/190/34
f 68/135/65 67/136/65 69/132/65 70/131/65
f 1/112/34 65/111/34 68/188/34 3/187/34
f 65/114/66 66/113/66 67/136/66 68/135/66
f 4/191/34 2/192/34 64/193/34 62/194/34 60/195/34 58/196/34 56/197/34 54/198/34 52/199/34 132/200/34 133/201/34 134/202/34 135/203/34 136/204/34 137/205/34 40/206/34 38/207/34 36/208/34 34/209/34 32/210/34 30/211/34 28/212/34 26/213/34 24/214/34 22/215/34 20/216/34 18/217/34 16/218/34 14/219/34 12/220/34 10/221/34 8/222/34 6/223/34
f 40/206/34 137/205/34 131/224/34 130/225/34 129/226/34 132/200/34 52/199/34 50/227/34 48/228/34 46/229/34 44/230/34 42/231/34
f 129/232/67 130/233/67 140/234/67 139/235/67
f 141/236/68 142/237/68 151/238/68 150/239/68
f 136/240/69 135/241/69 145/242/69 146/243/69
f 133/244/70 132/245/70 138/246/70 143/247/70
f 130/233/71 131/248/71 141/236/71 140/234/71
f 137/249/72 136/240/72 146/243/72 142/250/72
f 134/251/73 133/244/73 143/247/73 144/252/73
f 131/248/74 137/253/74 142/237/74 141/236/74
f 132/254/75 129/232/75 139/235/75 138/255/75
f 135/241/76 134/251/76 144/252/76 145/242/76
f 138/255/77 139/235/77 148/256/77 147/257/77
f 146/243/78 145/242/78 154/258/78 155/259/78
f 143/247/79 138/246/79 147/260/79 152/261/79
f 139/235/80 140/234/80 149/262/80 148/256/80
f 142/250/81 146/243/81 155/259/81 151/263/81
f 144/252/82 143/247/82 152/261/82 153/264/82
f 140/234/83 141/236/83 150/239/83 149/262/83
f 145/242/84 144/252/84 153/264/84 154/258/84
usemtl Material.002_NONE
f 147/200/34 148/226/34 149/225/34 150/224/34 151/205/34 155/204/34 154/203/34 153/202/34 152/201/34
